<?xml version="1.0" encoding="UTF-8"?>
<svg width="24px" height="24px" viewBox="0 0 24 24" version="1.1" xmlns="http://www.w3.org/2000/svg" xmlns:xlink="http://www.w3.org/1999/xlink">
    <!-- Generator: Sketch 64 (93537) - https://sketch.com -->
    <title>grid-1-2</title>
    <desc>Created with Sketch.</desc>
    <g id="Page-1" stroke="none" stroke-width="1" fill="none" fill-rule="evenodd">
        <g id="Artboard" transform="translate(-162.000000, -109.000000)" fill="#000000" fill-rule="nonzero">
            <g id="grid-1-2" transform="translate(162.000000, 109.000000)">
                <path d="M8.25,0 L0,0 L0,24 L8.25,24 C9.76878306,24 11,23.1045695 11,22 L11,2 C11,0.8954305 9.76878306,0 8.25,0 Z" id="Path" transform="translate(5.500000, 12.000000) scale(-1, 1) translate(-5.500000, -12.000000) "></path>
                <path d="M13,20.8571429 C13,22.5928949 14.4071051,24 16.1428571,24 L24,24 L24,13 L13,13 L13,20.8571429 Z" id="Path" transform="translate(18.500000, 18.500000) scale(-1, 1) translate(-18.500000, -18.500000) "></path>
                <path d="M13,3.14285714 L13,11 L24,11 L24,0 L16.1428571,0 C14.4071051,0 13,1.40710507 13,3.14285714 Z" id="Path" transform="translate(18.500000, 5.500000) scale(-1, 1) translate(-18.500000, -5.500000) "></path>
            </g>
        </g>
    </g>
</svg>