<?xml version="1.0" encoding="UTF-8"?>
<svg width="24px" height="24px" viewBox="0 0 24 24" version="1.1" xmlns="http://www.w3.org/2000/svg" xmlns:xlink="http://www.w3.org/1999/xlink">
    <!-- Generator: Sketch 64 (93537) - https://sketch.com -->
    <title>grid-2-1</title>
    <desc>Created with Sketch.</desc>
    <g id="Page-1" stroke="none" stroke-width="1" fill="none" fill-rule="evenodd">
        <g id="Artboard" transform="translate(-127.000000, -109.000000)" fill="#000000" fill-rule="nonzero">
            <g id="grid-2-1" transform="translate(127.000000, 109.000000)">
                <path d="M21.25,0 L13,0 L13,24 L21.25,24 C22.7687831,24 24,23.1045695 24,22 L24,2 C24,0.8954305 22.7687831,0 21.25,0 Z" id="Path"></path>
                <path d="M0,20.8571429 C0,22.5928949 1.40710507,24 3.14285714,24 L11,24 L11,13 L0,13 L0,20.8571429 Z" id="Path"></path>
                <path d="M0,3.14285714 L0,11 L11,11 L11,0 L3.14285714,0 C1.40710507,0 0,1.40710507 0,3.14285714 Z" id="Path"></path>
            </g>
        </g>
    </g>
</svg>