<?xml version="1.0" encoding="UTF-8"?>
<svg width="24px" height="24px" viewBox="0 0 24 24" version="1.1" xmlns="http://www.w3.org/2000/svg" xmlns:xlink="http://www.w3.org/1999/xlink">
    <!-- Generator: Sketch 64 (93537) - https://sketch.com -->
    <title>grid-2-2</title>
    <desc>Created with Sketch.</desc>
    <g id="Page-1" stroke="none" stroke-width="1" fill="none" fill-rule="evenodd">
        <g id="Artboard" transform="translate(-160.000000, -51.000000)" fill="#000000" fill-rule="nonzero">
            <g id="grid-2-2" transform="translate(160.000000, 51.000000)">
                <path d="M13,20.8571429 C13,22.5928949 14.4071051,24 16.1428571,24 L24,24 L24,13 L13,13 L13,20.8571429 Z" id="Path" transform="translate(18.500000, 18.500000) scale(-1, 1) translate(-18.500000, -18.500000) "></path>
                <path d="M13,3.14285714 L13,11 L24,11 L24,0 L16.1428571,0 C14.4071051,0 13,1.40710507 13,3.14285714 Z" id="Path" transform="translate(18.500000, 5.500000) scale(-1, 1) translate(-18.500000, -5.500000) "></path>
                <path d="M0,20.8571429 C0,22.5928949 1.40710507,24 3.14285714,24 L11,24 L11,13 L0,13 L0,20.8571429 Z" id="Path"></path>
                <path d="M0,3.14285714 L0,11 L11,11 L11,0 L3.14285714,0 C1.40710507,0 0,1.40710507 0,3.14285714 Z" id="Path"></path>
            </g>
        </g>
    </g>
</svg>